<svg xmlns="http://www.w3.org/2000/svg" width="80" height="80" viewBox="0 0 80 80">
  <style>
    .arc {
      animation: pulse 2s ease-in-out infinite;
      transform-origin: center;
    }
    .arc2 {
      animation-delay: 0.3s;
    }
    .arc3 {
      animation-delay: 0.6s;
    }

    @keyframes pulse {
      0%, 100% { opacity: 1; }
      50% { opacity: 0.4; }
    }

    .pin-group {
      animation: bounceIn 0.6s ease-out forwards;
      opacity: 0;
      animation-fill-mode: forwards;
    }

    @keyframes bounceIn {
      0% { transform: translateY(12px) scale(0.9); opacity: 0; }
      60% { transform: translateY(-4px) scale(1.05); opacity: 1; }
      100% { transform: translateY(0) scale(1); opacity: 1; }
    }
  </style>

  <!-- Green rounded background -->
  <rect width="80" height="80" rx="16" fill="#16A34A"/>

  <!-- Group for pin + signal, shifted downward -->
  <g transform="translate(0, 10)">
    <!-- Location pin group with bounce in -->
    <g class="pin-group">
      <!-- White pin body -->
      <path d="M40 24C35 24 31 28 31 33C31 41.5 40 55 40 55C40 55 49 41.5 49 33C49 28 45 24 40 24Z"
            fill="white" stroke="white" stroke-width="2"/>
      <!-- Green center hole -->
      <circle cx="40" cy="33" r="3" fill="#16A34A"/>
    </g>

    <!-- Signal arcs -->
    <path class="arc arc1" d="M34 19C37.5 16 42.5 16 46 19" stroke="white" stroke-width="2" stroke-linecap="round" fill="none"/>
    <path class="arc arc2" d="M31 15.5C37 11.5 43 11.5 49 15.5" stroke="white" stroke-width="2" stroke-linecap="round" fill="none"/>
    <path class="arc arc3" d="M28 12C36 7.5 44 7.5 52 12" stroke="white" stroke-width="2" stroke-linecap="round" fill="none"/>
  </g>
</svg>
